HIERARCHY
ROOT Hips
{
  OFFSET -32.5998 29.0326 120.673
  CHANNELS 6 Xposition Yposition Zposition Zrotation Xrotation Yrotation
  JOINT LeftUpLeg
  {
    OFFSET 8.64259 1.95398 -2.38835
    CHANNELS 3 Zrotation Xrotation Yrotation
    JOINT LeftLeg
    {
      OFFSET 43.7702 0 0
      CHANNELS 3 Zrotation Xrotation Yrotation
      JOINT LeftFoot
      {
        OFFSET 40.6238 0 0
        CHANNELS 3 Zrotation Xrotation Yrotation
        JOINT LeftToeBase
        {
          OFFSET 12.7242 0 0
          CHANNELS 3 Zrotation Xrotation Yrotation
          End Site
          {
            OFFSET 0 0 0
          }
        }
      }
    }
  }
  JOINT RightUpLeg
  {
    OFFSET -8.2249 1.95398 -2.59336
    CHANNELS 3 Zrotation Xrotation Yrotation
    JOINT RightLeg
    {
      OFFSET 43.5653 0 0
      CHANNELS 3 Zrotation Xrotation Yrotation
      JOINT RightFoot
      {
        OFFSET 40.6238 0 0
        CHANNELS 3 Zrotation Xrotation Yrotation
        JOINT RightToeBase
        {
          OFFSET 12.7242 0 0
          CHANNELS 3 Zrotation Xrotation Yrotation
          End Site
          {
            OFFSET 0 0 0
          }
        }
      }
    }
  }
  JOINT Spine
  {
    OFFSET 0.165834 0.87714 6.61349
    CHANNELS 3 Zrotation Xrotation Yrotation
    JOINT Spine1
    {
      OFFSET 7.38963 1.71661e-005 0
      CHANNELS 3 Zrotation Xrotation Yrotation
      JOINT Spine2
      {
        OFFSET 11.9445 1.14441e-005 0
        CHANNELS 3 Zrotation Xrotation Yrotation
        JOINT Spine3
        {
          OFFSET 14.7254 4.19617e-005 0
          CHANNELS 3 Zrotation Xrotation Yrotation
          JOINT Spine4
          {
            OFFSET 10.9679 0 0
            CHANNELS 3 Zrotation Xrotation Yrotation
            JOINT RightShoulder
            {
              OFFSET 2.46616 -1.6653 3.69651
              CHANNELS 3 Zrotation Xrotation Yrotation
              JOINT RightArm
              {
                OFFSET 13.0012 0 0
                CHANNELS 3 Zrotation Xrotation Yrotation
                JOINT RightForeArm
                {
                  OFFSET 28.7848 1.62311e-005 0
                  CHANNELS 3 Zrotation Xrotation Yrotation
                  JOINT RightHand
                  {
                    OFFSET 26.5688 1.62095e-005 0
                    CHANNELS 3 Zrotation Xrotation Yrotation
                    End Site
                    {
                      OFFSET 0 0 0
                    }
                  }
                }
              }
            }
            JOINT LeftShoulder
            {
              OFFSET 2.38034 -1.29275 -3.7523
              CHANNELS 3 Zrotation Xrotation Yrotation
              JOINT LeftArm
              {
                OFFSET 16.3182 6.07031e-005 0
                CHANNELS 3 Zrotation Xrotation Yrotation
                JOINT LeftForeArm
                {
                  OFFSET 27.0901 0 0
                  CHANNELS 3 Zrotation Xrotation Yrotation
                  JOINT LeftHand
                  {
                    OFFSET 24.5451 1.51738e-005 0
                    CHANNELS 3 Zrotation Xrotation Yrotation
                    End Site
                    {
                      OFFSET 0 0 0
                    }
                  }
                }
              }
            }
            JOINT Neck
            {
              OFFSET 5.0226 -0.0266342 0
              CHANNELS 3 Zrotation Xrotation Yrotation
              JOINT Head
              {
                OFFSET 6.69364 2.86102e-005 0
                CHANNELS 3 Zrotation Xrotation Yrotation
                End Site
                {
                  OFFSET 0 0 0
                }
              }
            }
          }
        }
      }
    }
  }
}
MOTION
Frames:	14
Frame Time:	0.0416667
-277.726 86.5475 258.473 95.3322 45.1469 100.082 -162.569 -31.5234 102.077 -6.67703 1.30403 0.86704 84.207 16.5828 -1.63884 39.5749 -0.279929 14.9876 174.281 33.7875 106.89 -40.2632 -17.297 6.74853 66.1732 -2.01166 -1.06219 16.7892 3.88888 4.48433 -1.47607 7.73555 -92.2173 11.3184 -3.96988 -4.02003 -0.352197 -4.14284 -3.84154 -22.8616 -2.57991 -5.02554 -2.84895 -2.57991 -5.02554 94.0149 -30.069 -98.7009 42.952 -2.72051 13.9824 -8.07075 6.70313 -0.00439271 -4.31336 0.161267 -10.9257 -88.7954 -51.9898 80.9107 -23.8645 17.2252 -19.2774 10.3819 3.40637 -3.39876 6.50268 0.557366 3.96391 -6.94715 6.52826 -2.0461 -9.48983 6.11108 10.9818 
-271.385 85.6314 251.967 96.9523 42.0567 100.467 -161.97 -28.8998 103.242 -20.7655 1.56288 0.924338 72.7372 8.78215 -0.649873 50.5101 5.91475 14.6252 174.471 31.69 110.19 -50.8097 -18.6778 5.37064 72.6734 -7.18491 -2.91523 21.6557 1.8498 4.43109 -1.04904 7.64992 -92.4967 11.4854 -3.25341 -4.64246 -0.189269 -3.45437 -4.49509 -22.6695 -1.71013 -5.40354 -2.65684 -1.71013 -5.40354 92.5531 -29.7436 -101.743 41.9075 -4.78877 11.6846 -7.23019 6.3292 -0.349602 -3.93261 0.166958 -11.7656 -89.3337 -54.8615 80.6703 -26.1227 25.8071 -14.6696 5.80572 -7.13966 0.250151 4.28077 0.205764 0.232202 -7.68486 6.82487 3.19696 -9.88125 6.09189 8.96813 
-266.041 85.5408 246.055 99.4222 41.8917 98.1006 -164.114 -16.5625 103.973 -49.7194 14.442 2.11311 61.4232 0.387261 0.06882 27.3796 -4.14931 7.20764 174.945 25.85 109.277 -55.5003 -19.5563 4.45759 78.1428 -11.8439 -5.13618 22.1848 1.0311 6.36739 -0.851993 7.77749 -92.4522 11.2387 -2.83618 -4.60359 -0.436782 -3.03583 -4.47461 -22.9141 -1.32368 -5.24142 -2.90149 -1.32365 -5.24141 92.8257 -28.6287 -101.539 39.5678 -5.22416 6.91948 -7.44599 3.42658 -2.64366 -7.25476 0.18153 -8.66517 -89.3274 -56.0045 80.8884 -27.1948 24.8562 -9.55551 5.2911 -8.20305 0.0413295 2.30398 0.382127 4.07442 -5.77473 7.03815 7.68032 -9.5993 5.98326 6.58241 
-261.883 86.6545 241.478 99.3188 43.7841 96.8957 -169.535 1.17917 102.455 -77.9562 23.9452 4.29792 59.9759 -1.06884 0.251725 12.772 -9.52851 4.38084 175.386 20.5359 107.836 -54.5434 -18.874 3.78619 80.8309 -14.372 -5.74514 22.1536 1.33769 5.40793 -0.407388 7.76696 -92.1773 11.2861 -1.82441 -4.15422 -0.389946 -2.00533 -4.0701 -22.873 -0.493017 -4.50973 -2.8603 -0.493015 -4.50973 92.9256 -27.392 -101.72 39.1071 -3.46498 2.37893 -8.40136 4.01436 -4.5408 -8.8005 0.194672 -8.1788 -87.9977 -53.2908 82.3049 -26.355 17.2943 -6.18577 8.47559 -3.86881 -0.398079 3.39212 0.331349 3.51815 -2.68792 5.13918 7.59062 -9.01258 4.00125 4.83823 
-258.268 89.4042 236.962 99.4436 45.2509 93.0048 -174.251 17.174 96.82 -93.3635 12.6486 4.42333 63.6631 0.423496 2.53691 6.13786 -12.5144 3.40938 175.25 13.3799 103.057 -48.8211 -18.4477 2.93022 80.3127 -14.0633 -4.63368 24.1724 0.496806 5.50275 0.217367 7.84884 -91.5875 11.1613 -0.304883 -3.13028 -0.51333 -0.442272 -3.11386 -23.019 0.649519 -3.07734 -3.00637 0.649541 -3.07735 92.9939 -24.9968 -102.378 39.6071 -2.17155 -1.19566 -9.12798 4.80073 -4.0895 -10.8624 0.191173 -7.52956 -87.6094 -52.1817 82.6835 -21.2369 13.3572 -8.55538 10.0088 0.928768 -0.681613 3.74705 0.419297 5.14601 -3.25859 1.70945 6.20609 -7.56076 0.92142 2.41779 
-254.231 94.5639 232.025 103.194 45.5839 85.244 -175.179 25.7643 89.7017 -93.2966 1.25631 4.16254 69.0212 3.07182 4.07034 -0.416443 -15.7521 2.88374 174.572 3.28605 97.0299 -40.1885 -22.2259 1.09709 70.0776 -7.00916 -5.37754 29.3935 -2.31445 8.68958 0.841588 8.25162 -90.7895 10.3769 1.31506 -1.68486 -1.2945 1.23967 -1.7411 -23.83 1.76062 -1.21177 -3.81738 1.76061 -1.21178 91.9905 -26.1877 -104.108 37.3951 -2.25861 -2.03684 -9.38981 0.722707 -6.76929 -13.7473 0.132695 -6.48878 -87.7635 -50.5127 82.1693 -18.6414 10.702 -10.4342 11.0365 1.12964 -1.66342 3.40565 0.320109 3.71682 -8.05505 -1.54555 0.169897 -5.26299 -1.60585 2.04487 
-249.864 99.5424 227.153 105.226 44.7645 79.8631 -176.874 30.0006 84.4869 -84.5864 0.253526 3.61716 72.4055 5.13079 4.07313 3.93502 -15.0433 5.1834 176.028 -1.64802 93.721 -35.6751 -21.7042 -2.49771 58.9987 1.78192 -1.74356 23.5627 -0.295782 9.37614 1.21008 8.53075 -90.1142 9.81792 2.3604 -0.413288 -1.85097 2.33992 -0.51683 -24.4033 2.3754 0.315633 -4.39068 2.37542 0.315634 92.0457 -24.9236 -104.472 38.8648 -4.91731 -3.80898 -8.82895 1.86487 -9.19934 -11.342 0.327523 -8.90289 -87.5497 -47.234 81.9035 -19.189 11.8873 -9.33491 11.0336 3.51487 -3.55343 1.0863 0.177927 4.53282 -13.5037 -2.4699 -4.713 -3.62251 -2.37252 0.162105 
-245.241 102.683 221.592 104.138 40.4657 77.8603 -176.935 31.2156 81.5914 -72.9218 4.60291 2.16449 77.5994 9.11817 3.17285 3.61657 -13.4671 2.82071 176.832 -3.60255 91.3965 -36.5015 -26.717 -5.60998 55.9923 3.79528 0.306086 19.2893 2.10191 6.6328 1.63266 8.5871 -89.6109 9.69572 3.43069 0.501786 -1.97078 3.44944 0.350121 -24.5364 3.12113 1.51057 -4.52378 3.12116 1.51058 91.857 -23.8436 -105.293 40.3702 -6.65337 -5.55617 -8.2941 1.91301 -10.2602 -9.5902 0.28217 -9.00684 -87.6514 -48.0901 81.904 -17.2573 15.1476 -5.05851 10.3947 2.93466 -5.44753 2.17705 0.362646 6.53578 -17.5279 -2.20345 -4.90313 -2.15503 -2.31187 -1.7099 
-240.998 104.176 216.161 102.023 39.356 78.5839 -179.855 32.1175 80.3245 -59.3422 4.60254 2.5388 79.8709 10.6756 1.75827 8.428 -11.1116 3.15845 174.818 -5.14394 90.2908 -28.5713 -30.2918 -3.36267 55.3142 3.7216 3.75773 26.5631 0.482901 1.9452 1.65825 8.47592 -89.4162 9.91056 3.5701 0.868667 -1.75567 3.60489 0.710494 -24.3207 3.14386 1.90235 -4.30803 3.14389 1.90234 91.4417 -24.5575 -105.915 40.5404 -8.14781 -7.54023 -8.08016 0.829107 -10.1193 -11.1031 0.273176 -8.36646 -87.4978 -49.572 82.4038 -17.6769 15.3374 -3.18935 9.74557 2.1837 -1.48774 3.98033 0.495445 6.15934 -17.5005 -2.18296 -4.72101 -3.5935 -2.27095 -1.24881 
-236.454 103.664 210.809 100.316 39.1694 79.9094 178.126 31.5073 79.8789 -44.7999 1.35207 3.12233 78.9443 10.7777 2.55903 11.5435 -7.65831 0.271317 174.277 -5.61921 91.5134 -22.1011 -21.1893 -1.09808 59.2914 1.16549 2.22707 22.3417 2.63339 0.962727 1.57495 8.33906 -89.428 10.1853 3.39917 0.847373 -1.48139 3.43317 0.696783 -24.0434 2.98724 1.83054 -4.03077 2.98726 1.83054 91.142 -24.6327 -106.533 41.9853 -8.16195 -8.17185 -8.07581 0.797178 -10.0059 -12.21 0.174918 -7.08095 -86.5496 -49.9267 83.8942 -21.313 15.8337 -0.0893355 9.46319 0.0438805 -1.64746 3.76792 0.441773 5.53471 -17.2947 -2.22698 -2.55882 -4.42093 -2.26329 -2.51277 
-231.789 101.215 205.508 98.4857 37.8944 80.6559 178.461 30.489 79.8403 -31.0365 1.05675 1.75805 80.3337 12.1193 -1.08112 11.6954 -12.2311 7.55993 173.915 -4.44976 91.4722 -21.0715 -11.6842 -0.171762 61.066 0.627329 1.02974 25.2635 -0.0111741 6.07864 1.64812 8.2366 -89.3673 10.3881 3.57299 0.944454 -1.27822 3.61108 0.786088 -23.8424 3.12385 1.97545 -3.82979 3.12386 1.97546 90.9377 -24.413 -107.067 43.983 -8.31556 -8.35431 -8.01176 1.33852 -9.82003 -12.8496 0.268802 -7.82394 -85.6484 -50.1276 85.2812 -25.6196 13.9062 3.36959 9.74059 -3.88685 -4.68271 6.25539 0.77358 7.13953 -15.9912 -2.22239 -0.838728 -5.22738 -2.17892 -4.13134 
-227.48 96.909 199.809 97.4836 34.2663 79.8311 179.374 32.1838 79.3382 -24.3639 7.09242 0.154622 76.3275 11.0579 2.60239 12.2236 -9.73715 4.101 171.88 -5.65782 88.968 -28.0527 -12.9634 -0.811663 71.1549 -7.40031 -4.38591 34.4447 -3.84587 7.13062 1.99988 8.2013 -89.2816 10.4554 4.31327 1.04659 -1.20867 4.35514 0.855399 -23.7875 3.79913 2.29607 -3.7748 3.79914 2.29608 90.4912 -23.5493 -108.42 45.6234 -10.0993 -8.04519 -7.22143 5.40385 -7.32244 -12.4136 0.337341 -8.63701 -85.7159 -54.6067 85.7856 -24.662 12.2065 5.16098 10.0364 -4.56424 -5.43018 6.50324 0.774601 6.73117 -14.7406 -2.2771 3.21052 -5.36775 -2.20335 -7.60819 
-223.163 92.6691 193.858 95.6904 29.6916 79.7173 179.39 35.3096 80.1845 -22.4621 12.5237 -0.162045 74.8139 10.3618 3.42669 11.1569 -11.4478 5.88957 169.019 -7.96551 83.7776 -32.9272 -17.1597 -2.40018 84.0429 -16.5494 -2.0767 34.5455 -2.54482 -0.156751 2.39945 8.18656 -89.1679 10.4794 5.16132 1.19586 -1.18163 5.20893 0.966948 -23.7802 4.56293 2.69449 -3.76753 4.56295 2.69448 90.2719 -22.7122 -109.291 46.2523 -12.004 -10.6796 -7.10699 7.55586 -2.4018 -12.835 0.445236 -9.50567 -85.9405 -60.2262 86.1818 -21.3563 8.94673 5.23529 11.3361 -1.77519 -5.79929 5.07872 0.689489 7.5653 -9.78229 -1.77581 7.70985 -7.92917 -1.78134 -10.6932 
-216.859 90.5923 187.43 92.2794 28.7841 83.0803 178.829 38.884 82.8402 -26.3415 14.4537 0.601565 73.453 8.37354 0.228403 8.53216 -12.9929 5.99456 169.099 -14.1184 83.6467 -26.3754 -14.611 -3.53763 84.8206 -16.5162 -0.119942 40.2039 -5.16673 0.858106 2.55098 7.83996 -89.2003 11.1767 5.44895 1.0586 -0.483083 5.49023 0.817048 -23.092 4.8784 2.65075 -3.07933 4.8784 2.65075 90.385 -22.2309 -109.268 48.002 -12.4786 -11.4993 -6.81831 6.80914 -1.06809 -15.6574 0.03062 -5.67664 -85.1288 -61.5616 87.421 -19.6027 10.1942 2.29027 11.5452 2.96102 -2.62998 4.2787 0.578524 6.9505 -5.71476 -1.03847 8.3625 -11.3721 -1.08961 -10.0163 
